<svg xmlns="http://www.w3.org/2000/svg" width="1400" height="560" viewBox="0 0 1400 560">
<defs>
  <linearGradient id="bg" x1="0" y1="0" x2="1" y2="1"><stop stop-color="#070b18"/><stop offset=".5" stop-color="#101a35"/><stop offset="1" stop-color="#180f2b"/></linearGradient>
  <linearGradient id="cyan" x1="0" y1="0" x2="1" y2="0"><stop stop-color="#22d3ee"/><stop offset="1" stop-color="#60a5fa"/></linearGradient>
  <linearGradient id="violet" x1="0" y1="0" x2="1" y2="0"><stop stop-color="#a78bfa"/><stop offset="1" stop-color="#f472b6"/></linearGradient>
  <filter id="glow"><feGaussianBlur stdDeviation="5" result="b"/><feMerge><feMergeNode in="b"/><feMergeNode in="SourceGraphic"/></feMerge></filter>
</defs>
<rect width="1400" height="560" rx="36" fill="url(#bg)"/>
<circle cx="120" cy="70" r="150" fill="#22d3ee" opacity=".06"/><circle cx="1280" cy="500" r="220" fill="#a78bfa" opacity=".07"/>
<g opacity=".18" stroke="#64748b"><path d="M70 150H1330M70 280H1330M70 410H1330"/><path d="M220 70V490M470 70V490M700 70V490M930 70V490M1180 70V490"/></g>
<text x="700" y="82" text-anchor="middle" fill="#f8fafc" font-family="Arial,Helvetica,sans-serif" font-size="46" font-weight="800">OAE · Open Autonomous Engineer</text>
<text x="700" y="120" text-anchor="middle" fill="#94a3b8" font-family="Arial,Helvetica,sans-serif" font-size="20">GOVERNED ENGINEERING CONTROL PLANE · CONTROLLED BETA</text>
<g font-family="Arial,Helvetica,sans-serif" text-anchor="middle">
  <g fill="#0b1224" stroke="url(#cyan)" stroke-width="2">
    <rect x="55" y="185" width="210" height="105" rx="20"/><rect x="295" y="185" width="210" height="105" rx="20"/>
    <rect x="535" y="185" width="210" height="105" rx="20"/><rect x="775" y="185" width="210" height="105" rx="20"/>
    <rect x="1015" y="185" width="330" height="105" rx="20"/>
  </g>
  <g fill="#fff" font-size="21" font-weight="700">
    <text x="160" y="225">UNDERSTAND</text><text x="400" y="225">PLAN</text><text x="640" y="225">AUTHORIZE</text><text x="880" y="225">EXECUTE</text><text x="1180" y="225">VERIFY · RECORD · RECOVER</text>
  </g>
  <g fill="#94a3b8" font-size="14">
    <text x="160" y="252">repository context</text><text x="400" y="252">bounded mission</text><text x="640" y="252">scoped authority</text><text x="880" y="252">durable work</text><text x="1180" y="252">evidence + audit trail</text>
  </g>
</g>
<g stroke="url(#violet)" stroke-width="3" fill="none" filter="url(#glow)"><path d="M265 238H295"/><path d="M505 238H535"/><path d="M745 238H775"/><path d="M985 238H1015"/></g>
<rect x="145" y="355" width="1110" height="82" rx="22" fill="#0b1224" stroke="#334155"/>
<text x="700" y="389" text-anchor="middle" fill="#e2e8f0" font-family="Arial,Helvetica,sans-serif" font-size="19" font-weight="700">Human authority stays explicit at consequential boundaries.</text>
<text x="700" y="416" text-anchor="middle" fill="#94a3b8" font-family="Arial,Helvetica,sans-serif" font-size="15">Tenant isolation · authorization · durable jobs · verification · evidence · recovery</text>
<text x="700" y="505" text-anchor="middle" fill="#64748b" font-family="Arial,Helvetica,sans-serif" font-size="14">OAE is not presented as unrestricted autonomy or an automatic code-publishing system.</text>
</svg>